<?xml version="1.0" encoding="iso-8859-1"?>
<!-- Generator: Adobe Illustrator 18.1.1, SVG Export Plug-In . SVG Version: 6.00 Build 0)  -->
<svg version="1.1" id="Capa_1" xmlns="http://www.w3.org/2000/svg" xmlns:xlink="http://www.w3.org/1999/xlink" x="0px" y="0px"
	 viewBox="0 0 467.564 467.564" style="enable-background:new 0 0 467.564 467.564;" xml:space="preserve">
<g>
	<g>
		<g>
			<path style="fill:#F58220;" d="M349.346,122.116c-30.677,0-55.656,24.971-55.656,55.664c0,30.685,24.971,55.648,55.656,55.648
				s55.648-24.963,55.648-55.648C404.986,147.087,380.023,122.116,349.346,122.116z M349.346,209.392
				c-17.436,0-31.628-14.176-31.628-31.604c0-17.444,14.192-31.62,31.628-31.62s31.596,14.184,31.596,31.62
				C380.934,195.216,366.774,209.392,349.346,209.392z"/>
		</g>
		<g>
			<path style="fill:#F58220;" d="M349.346,237.98c-23.118,0-43.618,14.453-51.795,35.814c-6.405-0.496-14.136-1.024-21.256-1.414
				c-7.21-0.39-14.883-6.6-22.28-12.607c-3.885-3.162-7.568-6.096-10.722-8.12c-5.527-3.991-10.567-8.494-15.046-12.485
				c-6.031-5.349-12.656-11.234-20.354-15.753c1.244-1.764,2.406-3.633,3.495-5.625c10.64-17.737,10.502-36.863,10.38-53.787
				c-0.041-5.942-0.081-12.095,0.317-17.948c1.398-17.314,13.217-40.976,26.304-52.673c10.144-8.811,22.256-11.608,36.31-14.851
				c4.186-0.967,8.421-2.016,12.664-3.219c8.039,21.524,28.466,36.001,51.99,36.001c30.677,0,55.648-24.963,55.648-55.648
				C405.002,24.971,380.039,0,349.354,0c-28.881,0-52.714,22.118-55.323,51.291c-4.373,1.341-9.088,2.504-14.737,3.804
				c-14.997,3.438-31.986,7.348-46.804,20.248c-18.013,16.127-32.466,45.065-34.376,68.882c-0.471,6.584-0.431,13.168-0.39,19.956
				c0.13,15.713,0.219,29.279-7.218,41.716c-3.837,7.088-7.121,9.112-10.169,9.868l-1.488-0.024
				c-1.894-0.081-3.853-0.098-5.901-0.098l-1.016,0.008c-6.194-24.288-28.279-41.935-53.722-41.935
				c-30.677,0-55.648,24.963-55.648,55.648c0,30.693,24.971,55.656,55.648,55.656c26.589,0,48.877-18.558,54.209-44.122l0.87-0.049
				c3.203-0.114,6.267-0.431,9.185-0.967c10.445,0.691,18.289,7.039,29.872,17.354c5.17,4.593,10.502,9.332,17.395,14.282
				c2.878,1.853,5.901,4.341,9.12,6.942c9.413,7.633,21.142,17.151,36.156,17.932c6.243,0.333,12.973,0.805,18.818,1.227
				c2.048,28.84,26.166,51.673,55.51,51.673c30.677,0,55.648-24.971,55.648-55.673C404.986,262.935,380.023,237.98,349.346,237.98z
				 M349.346,325.232c-17.436,0-31.628-14.184-31.628-31.612c0-17.436,14.192-31.604,31.628-31.604s31.596,14.168,31.596,31.604
				C380.934,311.048,366.774,325.232,349.346,325.232z M349.346,24.052c17.436,0,31.596,14.184,31.596,31.612
				c0,17.436-14.16,31.612-31.596,31.612S317.718,73.1,317.718,55.664C317.718,38.237,331.91,24.052,349.346,24.052z
				 M118.202,260.968c-17.436,0-31.604-14.176-31.604-31.612c0-17.428,14.176-31.604,31.604-31.604
				c16.745,0,30.539,13.168,31.417,29.612l0.016,3.617C148.741,247.808,134.938,260.968,118.202,260.968z" />
		</g>
		<g>
			<path style="fill:#F58220;" d="M349.346,356.259c-30.677,0-55.656,24.955-55.656,55.648s24.971,55.656,55.656,55.656
				s55.648-24.955,55.648-55.656C404.986,381.222,380.023,356.259,349.346,356.259z M349.346,443.519
				c-17.436,0-31.628-14.184-31.628-31.612c0-17.42,14.192-31.612,31.628-31.612s31.596,14.192,31.596,31.612
				C380.934,429.335,366.774,443.519,349.346,443.519z" />
		</g>
	</g>
</g>
<g>
</g>
<g>
</g>
<g>
</g>
<g>
</g>
<g>
</g>
<g>
</g>
<g>
</g>
<g>
</g>
<g>
</g>
<g>
</g>
<g>
</g>
<g>
</g>
<g>
</g>
<g>
</g>
<g>
</g>
</svg>
