<?xml version="1.0" encoding="UTF-8"?>
<svg xmlns="http://www.w3.org/2000/svg" xmlns:xlink="http://www.w3.org/1999/xlink" viewBox="0 0 96 96" width="96px" height="96px">
<g id="surface259513">
<path style=" stroke:none;fill-rule:nonzero;fill:rgb(96.078432%,50.980395%,12.54902%);fill-opacity:1;" d="M 13.351562 4.023438 C 10.140625 3.839844 6.867188 5.359375 5.21875 8.125 C 4.421875 9.472656 4.015625 10.949219 4.007812 12.492188 C 4.003906 16.214844 6.40625 19.242188 7.84375 21.046875 C 8.097656 21.367188 8.328125 21.644531 8.5625 21.984375 L 9.210938 22.84375 C 9.859375 23.6875 10.585938 24.636719 10.8125 25.117188 C 10.890625 25.339844 10.996094 25.730469 11.132812 26.21875 C 11.761719 28.480469 12.933594 32.679688 14.796875 35.875 C 15.542969 37.167969 16.605469 38.78125 17.367188 39.921875 C 16.859375 42.464844 16 47.152344 16 50 C 16 55 17.035156 59.015625 19.296875 62.6875 C 20.132812 64 22.683594 68 27 68 C 28.53125 68 31.078125 67.402344 31.765625 63.601562 C 34.824219 67.550781 38.511719 71.742188 44.921875 75.640625 C 45.238281 75.847656 45.597656 76 46 76 C 47.105469 76 48 75.105469 48 74 C 48 73.332031 47.648438 72.769531 47.140625 72.40625 C 41.660156 67.121094 34.421875 58.269531 31.5 51.046875 C 30.894531 49.546875 28.90625 49.320312 28.03125 50.679688 C 27.121094 52.101562 26.054688 54.015625 25.0625 56.4375 C 24.339844 54.605469 24 52.539062 24 50 C 24 48.136719 25.054688 42.550781 25.59375 39.804688 C 25.792969 38.792969 25.585938 37.777344 25.007812 36.921875 C 24.023438 35.46875 22.480469 33.167969 21.710938 31.851562 C 20.367188 29.546875 19.375 25.980469 18.84375 24.070312 C 18.585938 23.140625 18.378906 22.464844 18.1875 22.007812 C 17.488281 20.488281 16.464844 19.152344 15.570312 17.976562 L 15.0625 17.320312 C 14.808594 16.957031 14.476562 16.53125 14.101562 16.0625 C 13.371094 15.140625 12.007812 13.433594 12.046875 12.328125 L 12.492188 12.015625 L 12.5 12 C 15.679688 12 19.777344 14.253906 21.320312 15.101562 C 21.820312 15.378906 22.195312 15.566406 22.390625 15.65625 L 23.085938 15.960938 L 24.453125 16.015625 C 26.242188 16.054688 31.675781 16.175781 35.515625 17.710938 C 42.519531 20.511719 46.390625 23.320312 50.328125 28.4375 C 55.613281 35.304688 59 43.320312 60.945312 48.992188 C 61.847656 51.625 62.636719 54.625 63.109375 56.5625 C 63.417969 57.832031 64.332031 58.835938 65.546875 59.304688 C 67.304688 59.980469 69.921875 61.085938 72.007812 62.382812 C 73.78125 63.484375 75.757812 64.910156 77.6875 66.71875 C 73.308594 67.804688 70.664062 69.53125 69.273438 70.710938 C 68.449219 71.410156 68.378906 72.636719 69.078125 73.460938 C 70.429688 75.054688 73.421875 77.691406 79.007812 81.492188 C 83.203125 84.347656 87.636719 89.976562 88.476562 91.25 C 88.839844 91.703125 89.375 92 90 92 C 91.105469 92 92 91.105469 92 90 C 92 89.585938 91.871094 89.203125 91.65625 88.882812 C 91.585938 88.777344 91.058594 87.898438 90.851562 87.53125 C 88.851562 84 85.070312 78.914062 81.21875 74.03125 C 83.84375 73.191406 86.789062 72.574219 88.921875 72.1875 C 90.34375 71.925781 91.03125 70.289062 90.210938 69.101562 C 89.113281 67.523438 87.511719 65.402344 85.5 63.273438 C 79.855469 57.304688 73.65625 53.917969 70.390625 52.523438 C 69.058594 47.457031 65.050781 34.453125 56.671875 23.5625 C 51.875 17.328125 46.773438 13.597656 38.484375 10.28125 C 33.578125 8.320312 27.675781 8.085938 25.046875 8.023438 C 22.875 6.832031 18.191406 4.300781 13.351562 4.023438 Z M 28.5625 20 C 28.503906 20 27.113281 20.007812 25.507812 20.40625 C 25.183594 20.492188 24.921875 20.726562 24.804688 21.039062 C 24.691406 21.351562 24.742188 21.695312 24.9375 21.96875 L 29.070312 27.59375 C 29.257812 27.851562 29.488281 28.101562 29.875 28 C 30.191406 28 30.488281 27.855469 30.679688 27.601562 C 31.988281 25.859375 32 23.835938 32 23.75 C 32 23.628906 31.980469 23.511719 31.9375 23.398438 C 31.902344 23.300781 31.011719 20.996094 28.960938 20.085938 C 28.832031 20.03125 28.699219 20 28.5625 20 Z M 28.5625 20 "/>
</g>
</svg>
